<svg width="29" height="52" viewBox="0 0 29 52" fill="none" xmlns="http://www.w3.org/2000/svg">
<path d="M10.4103 18.6463C10.656 19.1239 10.9017 19.6015 11.3931 20.0791C11.8845 20.5567 12.3759 21.0343 13.113 21.2732C13.85 21.7508 14.8328 21.9896 15.8156 22.4672C17.5355 23.1836 19.2554 23.9 20.7296 24.6165C22.2037 25.3329 23.4322 26.2881 24.415 27.2433C25.3978 28.1986 26.3806 29.3926 26.872 30.5867C27.3634 31.7807 27.8548 33.4524 27.8548 35.124C27.8548 36.7957 27.6091 38.2285 27.1177 39.4226C26.6263 40.6166 25.8892 41.8106 24.9064 42.7659C23.9236 43.7211 22.6951 44.4375 21.4666 44.9151C19.9925 45.3928 18.5183 45.8704 17.0441 46.1092V51.3629H12.6216V46.1092C11.1474 45.8704 9.6732 45.6316 8.19902 45.1539C6.72484 44.6763 5.49636 43.9599 4.51357 42.7659C3.28509 41.8106 2.548 40.3778 1.81091 38.9449C1.07382 37.5121 0.828125 35.6016 0.828125 33.4524H8.93611C8.93611 34.6464 9.18181 35.8404 9.4275 36.5569C9.6732 37.5121 10.1646 37.9897 10.9017 38.7061C11.3931 39.1837 12.1302 39.6614 12.8673 39.9002C13.6044 40.139 14.3414 40.139 15.0785 40.139C16.0613 40.139 16.7984 40.139 17.2898 39.9002C18.0269 39.6614 18.5183 39.4226 19.0097 38.9449C19.5011 38.4673 19.7468 37.9897 19.9925 37.5121C20.2382 37.0345 20.2382 36.3181 20.2382 35.6016C20.2382 34.8852 20.2382 34.1688 19.9925 33.6912C19.7468 33.2136 19.5011 32.4971 19.0097 32.0195C18.5183 31.5419 18.0269 31.0643 17.2898 30.8255C16.5527 30.3479 15.5699 30.109 14.5871 29.6314C12.8673 28.915 11.1474 28.1986 9.6732 27.4822C8.19902 26.7657 6.97054 25.8105 5.98775 24.8553C5.00497 23.9 4.02218 22.706 3.53079 21.512C3.0394 20.3179 2.548 18.6463 2.548 16.9746C2.548 15.5418 2.7937 14.1089 3.28509 12.9149C3.77648 11.7208 4.51357 10.5268 5.49636 9.57156C6.47915 8.61633 7.70763 7.89991 8.93611 7.18349C10.1646 6.70587 11.8845 6.22825 13.3587 5.98944V0.258057H17.7812V5.98944C19.2554 6.22825 20.7296 6.70587 22.2037 7.42229C23.4322 8.13872 24.6607 8.85514 25.3978 10.0492C26.3806 11.0044 27.1177 12.4373 27.6091 13.8701C28.1005 15.303 28.3461 16.9746 28.3461 18.6463H20.2382C20.2382 16.497 19.7468 14.8253 18.764 13.8701C17.7812 12.9149 16.5527 12.1985 15.0785 12.1985C14.3414 12.1985 13.6044 12.4373 12.8673 12.6761C12.3759 12.9149 11.8845 13.1537 11.3931 13.6313C10.9017 14.1089 10.656 14.5865 10.656 15.0641C10.4103 15.5418 10.4103 16.2582 10.4103 16.9746C10.1646 17.4522 10.4103 18.1686 10.4103 18.6463Z" fill="#2BBB94"/>
</svg>
