<svg width="46" height="45" viewBox="0 0 46 45" fill="none" xmlns="http://www.w3.org/2000/svg">
<path opacity="0.25" d="M44.5 22.5C44.5 34.3741 34.8741 44 23 44C11.1259 44 1.5 34.3741 1.5 22.5C1.5 10.6259 11.1259 1 23 1C34.8741 1 44.5 10.6259 44.5 22.5Z" stroke="white" stroke-width="2"/>
<path d="M21.199 29.393L21.1786 23.0961H18.5V20.3974H21.1786V18.5983C21.1786 16.1702 22.671 15 24.8209 15C25.8507 15 26.7358 15.0772 26.9937 15.1118V17.6493L25.5026 17.65C24.3334 17.65 24.107 18.2097 24.107 19.0312V20.3974H27.4286L26.5357 23.0961H24.107V29.393H21.199Z" fill="white"/>
</svg>
