<svg width="55" height="55" viewBox="0 0 55 55" fill="none" xmlns="http://www.w3.org/2000/svg">
<path d="M53.4263 14.1934L29.2571 1.18291C28.119 0.565657 26.7399 0.565657 25.6018 1.18291L1.42269 14.1934C0.795804 14.531 0.400391 15.1868 0.400391 15.9005V19.4401C0.400391 20.5106 1.26837 21.3786 2.33894 21.3786H52.4908C53.5614 21.3786 54.4294 20.5106 54.4294 19.4401V15.9005C54.4294 15.1868 54.034 14.5309 53.4071 14.1934H53.4263ZM27.4245 16.3538C25.2737 16.3538 23.528 14.6081 23.528 12.4574C23.528 10.3066 25.2737 8.56095 27.4245 8.56095C29.5752 8.56095 31.3209 10.3066 31.3209 12.4574C31.3209 14.6081 29.5752 16.3538 27.4245 16.3538Z" fill="#F85C04"/>
<path d="M51.3915 48.3447H3.45799C1.77979 48.3447 0.419922 49.7046 0.419922 51.3828V53.6589C0.419922 54.2472 0.892504 54.7199 1.48086 54.7199H53.3685C53.9568 54.7199 54.4294 54.2473 54.4294 53.6589V51.3828C54.4294 49.7046 53.0697 48.3447 51.3915 48.3447Z" fill="#F85C04"/>
<path d="M4.38379 23.3169V46.4158H10.2284V30.7628C10.2284 28.7664 11.8487 27.1461 13.8452 27.1461C15.8416 27.1461 17.4619 28.7664 17.4619 30.7628V46.4158H23.8079V30.7628C23.8079 28.7664 25.4282 27.1461 27.4247 27.1461C29.4211 27.1461 31.0414 28.7664 31.0414 30.7628V46.4158H37.3874V30.7628C37.3874 28.7664 39.0077 27.1461 41.0041 27.1461C43.0006 27.1461 44.6209 28.7664 44.6209 30.7628V46.4158H50.4655V23.3169H4.38379Z" fill="#F85C04"/>
</svg>
