<svg width="55" height="55" viewBox="0 0 55 55" fill="none" xmlns="http://www.w3.org/2000/svg">
<path d="M26.4734 27.6683C26.4734 28.4563 27.1126 29.0955 27.9005 29.0955C28.6885 29.0955 29.3276 28.4563 29.3276 27.6683C29.3276 26.8804 28.6885 26.2412 27.9005 26.2412C27.1126 26.2412 26.4734 26.8804 26.4734 27.6683Z" fill="#F85C04"/>
<path d="M43.252 10.7249H12.5491C11.673 10.7249 10.9622 11.4357 10.9622 12.3118V43.0203C10.9622 43.8965 11.673 44.6073 12.5491 44.6073H43.2576C44.1338 44.6073 44.8446 43.8965 44.8446 43.0203V12.3174C44.8446 11.4413 44.1281 10.7249 43.252 10.7249ZM41.2407 37.8737C41.2407 39.6039 39.8356 41.0145 38.0999 41.0145H17.6953C15.9651 41.0145 14.5544 39.6094 14.5544 37.8737V17.4634C14.5544 15.7332 15.9596 14.3226 17.6953 14.3226H31.3938C31.5316 14.3226 31.6693 14.3777 31.7685 14.4769L41.0864 23.7947C41.1856 23.8939 41.2407 24.0262 41.2407 24.1694L41.2407 37.8737Z" fill="#F85C04"/>
<path d="M17.695 15.386C16.5489 15.386 15.6177 16.3172 15.6177 17.4633V20.6152H22.8633C23.1058 19.4967 24.1031 18.6591 25.2878 18.6591C26.6599 18.6591 27.7729 19.7722 27.7729 21.1442C27.7729 22.5163 26.6599 23.6293 25.2878 23.6293C24.0976 23.6293 23.1057 22.7917 22.8633 21.6732H15.6177V33.6578H22.8633C23.1058 32.5393 24.1031 31.7017 25.2878 31.7017C26.6599 31.7017 27.7729 32.8148 27.7729 34.1868C27.7729 35.5589 26.6599 36.6719 25.2878 36.6719C24.0976 36.6719 23.1057 35.8344 22.8633 34.7158H15.6177V37.8677C15.6177 39.0138 16.5489 39.945 17.695 39.945H38.0997C39.2458 39.945 40.177 39.0138 40.177 37.8677V28.1972H30.3245C30.0821 29.3157 29.0847 30.1533 27.9 30.1533C26.528 30.1533 25.4149 29.0402 25.4149 27.6682C25.4149 26.2962 26.528 25.1831 27.9 25.1831C29.0902 25.1831 30.0821 26.0207 30.3245 27.1392H40.1827V24.3951L31.1737 15.3862L17.695 15.386Z" fill="#F85C04"/>
<path d="M26.7209 34.1928C26.7209 33.4048 26.0818 32.7656 25.2938 32.7656C24.5059 32.7656 23.8667 33.4048 23.8667 34.1928C23.8667 34.9807 24.5059 35.6199 25.2938 35.6199C26.0763 35.6199 26.7209 34.9807 26.7209 34.1928Z" fill="#F85C04"/>
<path d="M26.7209 21.1442C26.7209 20.3562 26.0818 19.717 25.2938 19.717C24.5059 19.717 23.8667 20.3562 23.8667 21.1442C23.8667 21.9321 24.5059 22.5713 25.2938 22.5713C26.0763 22.5713 26.7209 21.9321 26.7209 21.1442Z" fill="#F85C04"/>
<path d="M30.2474 1.19744C30.2474 0.905399 30.0105 0.668457 29.7184 0.668457C29.4264 0.668457 29.1895 0.905399 29.1895 1.19744V9.66681H30.2474V1.19744Z" fill="#F85C04"/>
<path d="M33.8736 1.19744C33.8736 0.905399 33.6367 0.668457 33.3447 0.668457C33.0526 0.668457 32.8157 0.905399 32.8157 1.19744V9.66681H33.8736V1.19744Z" fill="#F85C04"/>
<path d="M19.3539 1.19744C19.3539 0.905399 19.1169 0.668457 18.8249 0.668457C18.5328 0.668457 18.2959 0.905399 18.2959 1.19744V9.66681H19.3539V1.19744Z" fill="#F85C04"/>
<path d="M26.6163 1.19744C26.6163 0.905399 26.3794 0.668457 26.0873 0.668457C25.7953 0.668457 25.5583 0.905399 25.5583 1.19744V9.66681H26.6163V1.19744Z" fill="#F85C04"/>
<path d="M22.985 1.19744C22.985 0.905399 22.748 0.668457 22.456 0.668457C22.1639 0.668457 21.927 0.905399 21.927 1.19744V9.66681H22.985V1.19744Z" fill="#F85C04"/>
<path d="M37.5043 1.19744C37.5043 0.905399 37.2673 0.668457 36.9753 0.668457C36.6832 0.668457 36.4463 0.905399 36.4463 1.19744V9.66681H37.5043V1.19744Z" fill="#F85C04"/>
<path d="M15.722 1.19744C15.722 0.905399 15.4851 0.668457 15.193 0.668457C14.901 0.668457 14.6641 0.905399 14.6641 1.19744V9.66681H15.722V1.19744Z" fill="#F85C04"/>
<path d="M41.1361 1.19744C41.1361 0.905399 40.8991 0.668457 40.6071 0.668457C40.3151 0.668457 40.0781 0.905399 40.0781 1.19744V9.66681H41.1361V1.19744Z" fill="#F85C04"/>
<path d="M0.900146 25.8557C0.900146 26.1478 1.13709 26.3847 1.42913 26.3847H9.8985V25.3268H1.42913C1.13709 25.3212 0.900146 25.5637 0.900146 25.8557Z" fill="#F85C04"/>
<path d="M0.900146 22.2243C0.900146 22.5163 1.13709 22.7533 1.42913 22.7533H9.8985V21.6953H1.42913C1.13709 21.6953 0.900146 21.9323 0.900146 22.2243Z" fill="#F85C04"/>
<path d="M0.900146 36.7436C0.900146 37.0356 1.13709 37.2726 1.42913 37.2726H9.8985V36.2146H1.42913C1.13709 36.2146 0.900146 36.4515 0.900146 36.7436Z" fill="#F85C04"/>
<path d="M0.900146 29.4811C0.900146 29.7732 1.13709 30.0101 1.42913 30.0101H9.8985V28.9521H1.42913C1.13709 28.9521 0.900146 29.1891 0.900146 29.4811Z" fill="#F85C04"/>
<path d="M0.900146 33.113C0.900146 33.405 1.13709 33.642 1.42913 33.642H9.8985V32.584H1.42913C1.13709 32.584 0.900146 32.8209 0.900146 33.113Z" fill="#F85C04"/>
<path d="M0.900146 18.5932C0.900146 18.8852 1.13709 19.1222 1.42913 19.1222H9.8985V18.0642H1.42913C1.13709 18.0642 0.900146 18.3012 0.900146 18.5932Z" fill="#F85C04"/>
<path d="M0.900146 40.3752C0.900146 40.6672 1.13709 40.9042 1.42913 40.9042H9.8985V39.8462H1.42913C1.13709 39.8462 0.900146 40.0831 0.900146 40.3752Z" fill="#F85C04"/>
<path d="M0.900146 14.9614C0.900146 15.2534 1.13709 15.4903 1.42913 15.4903H9.8985V14.4324H1.42913C1.13709 14.4324 0.900146 14.6693 0.900146 14.9614Z" fill="#F85C04"/>
<path d="M25.5527 54.1393C25.5527 54.4313 25.7897 54.6683 26.0817 54.6683C26.3738 54.6683 26.6107 54.4313 26.6107 54.1393V45.6699H25.5527V54.1393Z" fill="#F85C04"/>
<path d="M21.927 54.1393C21.927 54.4313 22.1639 54.6683 22.456 54.6683C22.748 54.6683 22.985 54.4313 22.985 54.1393V45.6699H21.927V54.1393Z" fill="#F85C04"/>
<path d="M36.4463 54.1393C36.4463 54.4313 36.6832 54.6683 36.9753 54.6683C37.2673 54.6683 37.5043 54.4313 37.5043 54.1393V45.6699H36.4463V54.1393Z" fill="#F85C04"/>
<path d="M29.1838 54.1393C29.1838 54.4313 29.4208 54.6683 29.7128 54.6683C30.0049 54.6683 30.2418 54.4313 30.2418 54.1393V45.6699H29.1838V54.1393Z" fill="#F85C04"/>
<path d="M32.8157 54.1393C32.8157 54.4313 33.0526 54.6683 33.3447 54.6683C33.6367 54.6683 33.8736 54.4313 33.8736 54.1393V45.6699H32.8157V54.1393Z" fill="#F85C04"/>
<path d="M18.2959 54.1393C18.2959 54.4313 18.5328 54.6683 18.8249 54.6683C19.1169 54.6683 19.3539 54.4313 19.3539 54.1393V45.6699H18.2959V54.1393Z" fill="#F85C04"/>
<path d="M40.0781 54.1393C40.0781 54.4313 40.3151 54.6683 40.6071 54.6683C40.8991 54.6683 41.1361 54.4313 41.1361 54.1393V45.6699H40.0781V54.1393Z" fill="#F85C04"/>
<path d="M14.6641 54.1393C14.6641 54.4313 14.901 54.6683 15.193 54.6683C15.4851 54.6683 15.722 54.4313 15.722 54.1393V45.6699H14.6641V54.1393Z" fill="#F85C04"/>
<path d="M54.371 28.9521H45.9016V30.0101H54.371C54.663 30.0101 54.9 29.7732 54.9 29.4811C54.9 29.1891 54.663 28.9521 54.371 28.9521Z" fill="#F85C04"/>
<path d="M54.371 32.584H45.9016V33.642H54.371C54.663 33.642 54.9 33.405 54.9 33.113C54.9 32.8209 54.663 32.584 54.371 32.584Z" fill="#F85C04"/>
<path d="M54.371 18.0642H45.9016V19.1222H54.371C54.663 19.1222 54.9 18.8852 54.9 18.5932C54.9 18.3012 54.663 18.0642 54.371 18.0642Z" fill="#F85C04"/>
<path d="M54.371 25.321H45.9016V26.379H54.371C54.663 26.379 54.9 26.1421 54.9 25.85C54.9 25.558 54.663 25.321 54.371 25.321Z" fill="#F85C04"/>
<path d="M54.371 21.6953H45.9016V22.7533H54.371C54.663 22.7533 54.9 22.5163 54.9 22.2243C54.9 21.9323 54.663 21.6953 54.371 21.6953Z" fill="#F85C04"/>
<path d="M54.371 36.2146H45.9016V37.2726H54.371C54.663 37.2726 54.9 37.0356 54.9 36.7436C54.9 36.4515 54.663 36.2146 54.371 36.2146Z" fill="#F85C04"/>
<path d="M54.9 14.9614C54.9 14.6693 54.663 14.4324 54.371 14.4324H45.9016V15.4903H54.371C54.663 15.4903 54.9 15.2534 54.9 14.9614Z" fill="#F85C04"/>
<path d="M54.371 39.8462H45.9016V40.9042H54.371C54.663 40.9042 54.9 40.6672 54.9 40.3752C54.9 40.0831 54.663 39.8462 54.371 39.8462Z" fill="#F85C04"/>
</svg>
