<svg width="46" height="45" viewBox="0 0 46 45" fill="none" xmlns="http://www.w3.org/2000/svg">
<path opacity="0.25" d="M44.5 22.5C44.5 34.3741 34.8741 44 23 44C11.1259 44 1.5 34.3741 1.5 22.5C1.5 10.6259 11.1259 1 23 1C34.8741 1 44.5 10.6259 44.5 22.5Z" stroke="white" stroke-width="2"/>
<path d="M26.3679 19.9418C26.7987 19.9418 27.1479 19.5926 27.1479 19.1618C27.1479 18.7311 26.7987 18.3818 26.3679 18.3818C25.9371 18.3818 25.5879 18.7311 25.5879 19.1618C25.5879 19.5926 25.9371 19.9418 26.3679 19.9418Z" fill="white"/>
<path fill-rule="evenodd" clip-rule="evenodd" d="M19.75 22.5C19.75 24.2924 21.2076 25.75 23 25.75C24.7924 25.75 26.25 24.2924 26.25 22.5C26.25 20.7076 24.7924 19.25 23 19.25C21.2076 19.25 19.75 20.7076 19.75 22.5ZM21.375 22.5C21.375 21.6038 22.1038 20.875 23 20.875C23.8962 20.875 24.625 21.6038 24.625 22.5C24.625 23.3962 23.8962 24.125 23 24.125C22.1038 24.125 21.375 23.3962 21.375 22.5Z" fill="white"/>
<path fill-rule="evenodd" clip-rule="evenodd" d="M19.75 29H26.25C27.9205 29 29.5 27.4205 29.5 25.75V19.25C29.5 17.5795 27.9205 16 26.25 16H19.75C18.0795 16 16.5 17.5795 16.5 19.25V25.75C16.5 27.4205 18.0795 29 19.75 29ZM18.125 19.25C18.125 18.4903 18.9903 17.625 19.75 17.625H26.25C27.0097 17.625 27.875 18.4903 27.875 19.25V25.75C27.875 26.5097 27.0097 27.375 26.25 27.375H19.75C18.9757 27.375 18.125 26.5243 18.125 25.75V19.25Z" fill="white"/>
</svg>
