<svg width="46" height="45" viewBox="0 0 46 45" fill="none" xmlns="http://www.w3.org/2000/svg">
<path opacity="0.25" d="M44.375 22.5C44.375 34.3051 34.8051 43.875 23 43.875C11.1949 43.875 1.625 34.3051 1.625 22.5C1.625 10.6949 11.1949 1.125 23 1.125C34.8051 1.125 44.375 10.6949 44.375 22.5Z" stroke="white" stroke-width="2.25"/>
<path d="M18.1875 19.375C19.1195 19.375 19.875 18.6195 19.875 17.6875C19.875 16.7555 19.1195 16 18.1875 16C17.2555 16 16.5 16.7555 16.5 17.6875C16.5 18.6195 17.2555 19.375 18.1875 19.375Z" fill="white"/>
<path d="M19.5938 20.5H16.7812C16.626 20.5 16.5 20.626 16.5 20.7812V29.2188C16.5 29.374 16.626 29.5 16.7812 29.5H19.5938C19.749 29.5 19.875 29.374 19.875 29.2188V20.7812C19.875 20.626 19.749 20.5 19.5938 20.5Z" fill="white"/>
<path d="M27.9733 20.1125C26.7712 19.7007 25.2677 20.0624 24.366 20.711C24.3351 20.59 24.2248 20.5 24.0938 20.5H21.2812C21.126 20.5 21 20.626 21 20.7813V29.2188C21 29.374 21.126 29.5 21.2812 29.5H24.0938C24.249 29.5 24.375 29.374 24.375 29.2188V23.155C24.8295 22.7635 25.4151 22.6387 25.8943 22.8423C26.3589 23.0386 26.625 23.5178 26.625 24.1563V29.2188C26.625 29.374 26.751 29.5 26.9062 29.5H29.7188C29.874 29.5 30 29.374 30 29.2188V23.5898C29.9679 21.2785 28.8806 20.423 27.9733 20.1125Z" fill="white"/>
</svg>
