<svg width="55" height="54" viewBox="0 0 55 54" fill="none" xmlns="http://www.w3.org/2000/svg">
<path d="M54.4004 1.35C54.4004 1.15714 54.4004 1.15714 54.4004 1.35C54.2075 0.964286 54.2075 0.964286 54.0147 0.771429C54.0147 0.771429 54.0147 0.578571 53.8218 0.578571C53.629 0.385714 53.4361 0.385714 53.4361 0.192857C53.2432 -1.86797e-07 52.8575 0 52.6647 0H44.9504C43.7933 0 43.0218 0.771429 43.0218 1.92857C43.0218 3.08571 43.7933 3.85714 44.9504 3.85714H47.8433C35.5004 15.0429 20.6504 20.0571 2.52182 19.2857C1.55753 19.2857 0.593248 20.0571 0.400391 21.0214C0.400391 22.1786 1.17182 22.95 2.32896 23.1429C3.67896 23.1429 4.8361 23.3357 6.1861 23.3357C22.579 23.7214 38.5861 17.7429 50.5432 6.55714V9.64286C50.5432 10.8 51.3147 11.5714 52.4718 11.5714C53.629 11.5714 54.4004 10.8 54.4004 9.64286V1.92857C54.5933 1.73571 54.5933 1.54286 54.4004 1.35ZM54.5933 52.0714C54.5933 53.2286 53.8218 54 52.6647 54H2.52182C1.36468 54 0.593248 53.2286 0.593248 52.0714C0.593248 50.9143 1.36468 50.1429 2.52182 50.1429H6.37896V36.6429C6.37896 35.8714 6.76468 35.2929 7.5361 34.9071L15.2504 31.05C16.2147 30.4714 17.3718 30.8571 17.7575 31.8214C17.9504 32.2071 17.9504 32.4 17.9504 32.7857V50.1429H21.8075V28.9286C21.8075 28.1571 22.1932 27.5786 22.9647 27.1929L30.679 23.3357C31.6432 22.7571 32.8004 23.1429 33.1861 24.1071C33.379 24.4929 33.379 24.6857 33.379 25.0714V50.1429H37.2361V21.2143C37.2361 20.4429 37.6218 19.8643 38.2004 19.4786L45.9147 15.6214C46.879 15.0429 48.0361 15.4286 48.4218 16.3929C48.8075 16.7786 48.8075 16.9714 48.8075 17.3571V50.1429H52.6647C53.8218 50.1429 54.5933 50.9143 54.5933 52.0714Z" fill="#F85C04"/>
</svg>
