<svg width="46" height="45" viewBox="0 0 46 45" fill="none" xmlns="http://www.w3.org/2000/svg">
<path opacity="0.25" d="M44.5 22.5C44.5 34.3741 34.8741 44 23 44C11.1259 44 1.5 34.3741 1.5 22.5C1.5 10.6259 11.1259 1 23 1C34.8741 1 44.5 10.6259 44.5 22.5Z" stroke="white" stroke-width="2"/>
<path fill-rule="evenodd" clip-rule="evenodd" d="M29.7659 17.3431C30.451 17.5244 30.9906 18.0559 31.1745 18.7295C31.5159 19.9588 31.4999 22.522 31.4999 22.522C31.4999 22.522 31.4975 25.071 31.1665 26.2996C30.9803 26.9724 30.4382 27.5031 29.7539 27.6836C28.502 28.0055 23.4935 28 23.4935 28C23.4935 28 18.4987 27.9945 17.234 27.6569C16.5481 27.4756 16.0084 26.9441 15.8246 26.2713C15.4968 25.0545 15.5 22.4921 15.5 22.4921C15.5 22.4921 15.5032 19.9423 15.8334 18.713C16.0188 18.0402 16.5736 17.4969 17.2452 17.3172C18.4979 16.9945 23.5055 17 23.5055 17C23.5055 17 28.514 17.0055 29.7659 17.3431ZM21.9075 20.1441L21.9035 24.8543L26.0701 22.5031L21.9075 20.1441Z" fill="white"/>
</svg>
